G04*
G04 #@! TF.GenerationSoftware,Altium Limited,Altium Designer,20.1.7 (139)*
G04*
G04 Layer_Color=16711935*
%FSLAX43Y43*%
%MOMM*%
G71*
G04*
G04 #@! TF.SameCoordinates,6177D0A9-487A-4126-AA2D-7D1D30F1A86E*
G04*
G04*
G04 #@! TF.FilePolarity,Positive*
G04*
G01*
G75*
%ADD13C,0.127*%
D13*
X70392Y38541D02*
X82392D01*
X70392Y26541D02*
X82392D01*
Y38541D01*
X70392Y26541D02*
Y38541D01*
X42954Y20983D02*
X58624D01*
X42954Y4983D02*
X58624D01*
X58628Y20983D02*
X58811Y20804D01*
X59305Y20261D01*
X59686Y19792D01*
X59958Y19419D01*
X60313Y18875D01*
X60490Y18577D01*
X60669Y18265D01*
X60847Y17920D01*
X61032Y17521D01*
X61139Y17270D01*
X61247Y17008D01*
X61370Y16664D01*
X61434Y16483D01*
X42767Y5163D02*
X42951Y4983D01*
X42273Y5706D02*
X42767Y5163D01*
X41892Y6174D02*
X42273Y5706D01*
X41621Y6547D02*
X41892Y6174D01*
X41265Y7092D02*
X41621Y6547D01*
X41089Y7389D02*
X41265Y7092D01*
X40909Y7701D02*
X41089Y7389D01*
X40731Y8046D02*
X40909Y7701D01*
X40547Y8445D02*
X40731Y8046D01*
X40439Y8697D02*
X40547Y8445D01*
X40331Y8959D02*
X40439Y8697D01*
X40208Y9302D02*
X40331Y8959D01*
X40144Y9483D02*
X40208Y9302D01*
X42767Y20804D02*
X42951Y20983D01*
X42273Y20261D02*
X42767Y20804D01*
X41892Y19792D02*
X42273Y20261D01*
X41621Y19419D02*
X41892Y19792D01*
X41265Y18875D02*
X41621Y19419D01*
X41089Y18577D02*
X41265Y18875D01*
X40909Y18265D02*
X41089Y18577D01*
X40731Y17920D02*
X40909Y18265D01*
X40547Y17521D02*
X40731Y17920D01*
X40439Y17270D02*
X40547Y17521D01*
X40331Y17008D02*
X40439Y17270D01*
X40208Y16664D02*
X40331Y17008D01*
X40144Y16483D02*
X40208Y16664D01*
X58628Y4983D02*
X58811Y5163D01*
X59305Y5706D01*
X59686Y6174D01*
X59958Y6547D01*
X60313Y7092D01*
X60490Y7389D01*
X60669Y7701D01*
X60847Y8046D01*
X61032Y8445D01*
X61139Y8697D01*
X61247Y8959D01*
X61370Y9302D01*
X61434Y9483D01*
X36489D02*
X40144D01*
X36489D02*
Y16483D01*
X40144D01*
X61434D02*
X65089D01*
X61434Y9483D02*
X65089D01*
Y16483D01*
M02*
