G04*
G04 #@! TF.GenerationSoftware,Altium Limited,Altium Designer,20.1.7 (139)*
G04*
G04 Layer_Physical_Order=1*
G04 Layer_Color=255*
%FSLAX43Y43*%
%MOMM*%
G71*
G04*
G04 #@! TF.SameCoordinates,6177D0A9-487A-4126-AA2D-7D1D30F1A86E*
G04*
G04*
G04 #@! TF.FilePolarity,Positive*
G04*
G01*
G75*
%ADD16R,4.000X1.200*%
G04:AMPARAMS|DCode=17|XSize=0.94mm|YSize=1.02mm|CornerRadius=0.094mm|HoleSize=0mm|Usage=FLASHONLY|Rotation=0.000|XOffset=0mm|YOffset=0mm|HoleType=Round|Shape=RoundedRectangle|*
%AMROUNDEDRECTD17*
21,1,0.940,0.832,0,0,0.0*
21,1,0.752,1.020,0,0,0.0*
1,1,0.188,0.376,-0.416*
1,1,0.188,-0.376,-0.416*
1,1,0.188,-0.376,0.416*
1,1,0.188,0.376,0.416*
%
%ADD17ROUNDEDRECTD17*%
G04:AMPARAMS|DCode=18|XSize=0.94mm|YSize=1.02mm|CornerRadius=0.094mm|HoleSize=0mm|Usage=FLASHONLY|Rotation=90.000|XOffset=0mm|YOffset=0mm|HoleType=Round|Shape=RoundedRectangle|*
%AMROUNDEDRECTD18*
21,1,0.940,0.832,0,0,90.0*
21,1,0.752,1.020,0,0,90.0*
1,1,0.188,0.416,0.376*
1,1,0.188,0.416,-0.376*
1,1,0.188,-0.416,-0.376*
1,1,0.188,-0.416,0.376*
%
%ADD18ROUNDEDRECTD18*%
G04:AMPARAMS|DCode=19|XSize=1.5mm|YSize=0.6mm|CornerRadius=0.15mm|HoleSize=0mm|Usage=FLASHONLY|Rotation=270.000|XOffset=0mm|YOffset=0mm|HoleType=Round|Shape=RoundedRectangle|*
%AMROUNDEDRECTD19*
21,1,1.500,0.300,0,0,270.0*
21,1,1.200,0.600,0,0,270.0*
1,1,0.300,-0.150,-0.600*
1,1,0.300,-0.150,0.600*
1,1,0.300,0.150,0.600*
1,1,0.300,0.150,-0.600*
%
%ADD19ROUNDEDRECTD19*%
%ADD20R,0.813X0.813*%
%ADD21R,3.200X4.200*%
%ADD31C,0.489*%
%ADD32R,2.100X2.100*%
%ADD33C,2.250*%
%ADD34C,0.700*%
%ADD35C,0.500*%
G36*
X95000Y0D02*
X0D01*
Y52500D01*
X95000D01*
Y0D01*
D02*
G37*
%LPC*%
G36*
X13703Y35177D02*
Y33758D01*
X15122D01*
X15120Y33785D01*
X15019Y34117D01*
X14855Y34423D01*
X14636Y34691D01*
X14368Y34911D01*
X14062Y35074D01*
X13730Y35175D01*
X13703Y35177D01*
D02*
G37*
G36*
X7968D02*
X7940Y35175D01*
X7608Y35074D01*
X7302Y34911D01*
X7034Y34691D01*
X6815Y34423D01*
X6651Y34117D01*
X6550Y33785D01*
X6548Y33758D01*
X7968D01*
Y35177D01*
D02*
G37*
G36*
X26583Y44887D02*
X25903Y44843D01*
X25843Y44831D01*
X25235Y44710D01*
X24590Y44491D01*
X23979Y44189D01*
X23412Y43811D01*
X22900Y43362D01*
X22451Y42849D01*
X22072Y42283D01*
X21771Y41672D01*
X21552Y41027D01*
X21431Y40418D01*
X21419Y40358D01*
X21374Y39679D01*
X21377D01*
Y32713D01*
X21250Y32004D01*
X15454Y32004D01*
X15386Y32055D01*
X15019Y32763D01*
X15120Y33095D01*
X15122Y33123D01*
X13385D01*
Y33440D01*
X13068D01*
Y35177D01*
X13040Y35175D01*
X12708Y35074D01*
X12402Y34911D01*
X12134Y34691D01*
X11915Y34423D01*
X11751Y34117D01*
X11650Y33785D01*
X11622Y33500D01*
X10048Y33500D01*
X10020Y33785D01*
X9919Y34117D01*
X9755Y34423D01*
X9536Y34691D01*
X9268Y34911D01*
X8962Y35074D01*
X8630Y35175D01*
X8602Y35177D01*
Y33500D01*
X8500D01*
Y33440D01*
X8285D01*
Y33123D01*
X6548D01*
X6550Y33095D01*
X6651Y32763D01*
X6815Y32458D01*
X7034Y32190D01*
X7302Y31970D01*
X7608Y31806D01*
X7940Y31706D01*
X8285Y31672D01*
X8500Y31477D01*
Y30304D01*
X8285Y30109D01*
X7940Y30075D01*
X7608Y29974D01*
X7302Y29811D01*
X7034Y29591D01*
X6815Y29323D01*
X6651Y29017D01*
X6550Y28685D01*
X6548Y28658D01*
X8285D01*
Y28340D01*
X8602D01*
Y26603D01*
X8630Y26606D01*
X8962Y26706D01*
X9268Y26870D01*
X9536Y27090D01*
X9755Y27358D01*
X9919Y27663D01*
X10020Y27995D01*
X10054Y28340D01*
X10198Y28500D01*
X11472Y28500D01*
X11616Y28340D01*
X11650Y27995D01*
X11751Y27663D01*
X11915Y27358D01*
X12134Y27090D01*
X12402Y26870D01*
X12708Y26706D01*
X13040Y26606D01*
X13068Y26603D01*
Y28340D01*
X13385D01*
Y28658D01*
X15122D01*
X15120Y28685D01*
X15019Y29017D01*
X14984Y29083D01*
X15267Y29708D01*
X15413Y29845D01*
X21250Y29845D01*
Y29875D01*
X24036D01*
X24173Y29619D01*
X24457Y29273D01*
X24804Y28988D01*
X25200Y28777D01*
X25629Y28647D01*
X26075Y28603D01*
Y28605D01*
X27825D01*
X27876Y28612D01*
X29354D01*
X29405Y28605D01*
X31155D01*
Y28603D01*
X31601Y28647D01*
X32030Y28777D01*
X32426Y28988D01*
X32773Y29273D01*
X33057Y29619D01*
X33194Y29875D01*
X34538D01*
X34711Y29852D01*
X35293D01*
X36051Y29852D01*
X36055Y29852D01*
Y29852D01*
X36056Y29853D01*
X36484Y29886D01*
X36903Y29987D01*
X37301Y30152D01*
X37668Y30377D01*
X37996Y30656D01*
X38276Y30984D01*
X38501Y31351D01*
X38665Y31749D01*
X38766Y32168D01*
X38800Y32597D01*
X38798Y32623D01*
X38800Y32637D01*
Y33528D01*
X38862D01*
Y33931D01*
X39359Y34574D01*
X40208D01*
X40228Y34417D01*
X40330Y34172D01*
X40491Y33961D01*
X47056Y27396D01*
Y24928D01*
X47091Y24666D01*
X47192Y24421D01*
X47354Y24210D01*
X47640Y23924D01*
X47850Y23763D01*
X48095Y23661D01*
X48358Y23627D01*
X59782D01*
Y15523D01*
X59780D01*
X59823Y14967D01*
X59864Y14795D01*
X59954Y14424D01*
X60167Y13908D01*
X60459Y13432D01*
X60822Y13008D01*
X61246Y12645D01*
X61722Y12353D01*
X62238Y12140D01*
X62609Y12051D01*
X62781Y12010D01*
X63337Y11966D01*
X63585Y11306D01*
Y10629D01*
X67293D01*
Y15337D01*
X63585D01*
Y14654D01*
X63320Y14349D01*
X62823Y14090D01*
X62752Y14111D01*
X62488Y14253D01*
X62257Y14443D01*
X62066Y14674D01*
X61925Y14938D01*
X61838Y15225D01*
X61810Y15509D01*
X61812Y15523D01*
Y23627D01*
X73968D01*
X73968Y23625D01*
X74487Y23666D01*
X74693Y23715D01*
X74693Y23715D01*
X74693Y23715D01*
X74993Y23787D01*
X75473Y23986D01*
X75917Y24258D01*
X76313Y24596D01*
X76651Y24992D01*
X76923Y25436D01*
X77122Y25916D01*
X77163Y26087D01*
X78646D01*
Y27795D01*
X76933D01*
X76900Y27820D01*
X76655Y27922D01*
X76392Y27956D01*
X76267D01*
X76005Y27922D01*
X75760Y27820D01*
X75727Y27795D01*
X74138D01*
Y26383D01*
X74054Y26025D01*
X73555Y25657D01*
X67776D01*
X67625Y26419D01*
X67705Y26452D01*
X67915Y26614D01*
X68077Y26824D01*
X68178Y27069D01*
X68213Y27332D01*
X68178Y27594D01*
X68077Y27839D01*
X67948Y28122D01*
X68077Y28404D01*
X68178Y28649D01*
X68213Y28912D01*
Y34014D01*
X68215D01*
X68222Y34031D01*
X68239Y34038D01*
Y34041D01*
X68432Y34066D01*
X74894D01*
X74894Y34063D01*
X75385Y34111D01*
X75609Y34179D01*
X75609Y34179D01*
X75609Y34179D01*
X75857Y34254D01*
X76292Y34487D01*
X76674Y34800D01*
X76987Y35181D01*
X77219Y35616D01*
X77363Y36089D01*
X77411Y36580D01*
X77543Y37287D01*
X78646D01*
Y38995D01*
X76933D01*
X76900Y39020D01*
X76655Y39122D01*
X76392Y39156D01*
X76130Y39122D01*
X75885Y39020D01*
X75852Y38995D01*
X74138D01*
Y37287D01*
X75104D01*
X75239Y36691D01*
X74718Y36096D01*
X68264D01*
X68002Y36062D01*
X67961Y36045D01*
X67838Y36033D01*
X67788Y36018D01*
X67724Y36022D01*
X67135Y36280D01*
X66939Y36506D01*
X66908Y36579D01*
X66747Y36790D01*
X66537Y36951D01*
X66292Y37052D01*
X66029Y37087D01*
X64048D01*
X64037Y37086D01*
X63711Y37053D01*
X63387Y36955D01*
X63089Y36796D01*
X62828Y36581D01*
X62613Y36320D01*
X62453Y36021D01*
X62355Y35697D01*
X62323Y35372D01*
X62322Y35361D01*
Y33455D01*
X61561D01*
X61299Y33420D01*
X61054Y33319D01*
X60771Y33190D01*
X60489Y33319D01*
X60244Y33420D01*
X59981Y33455D01*
X59459D01*
X59441Y33466D01*
X59154Y33810D01*
X58951Y34217D01*
X58967Y34339D01*
X58933Y34602D01*
X58831Y34847D01*
X58703Y35129D01*
X58831Y35412D01*
X58933Y35657D01*
X58967Y35919D01*
X58968Y35919D01*
X58930Y36204D01*
X58821Y36469D01*
X58821Y36469D01*
X58646Y36697D01*
X58418Y36872D01*
X58418Y36872D01*
X58153Y36982D01*
X57868Y37019D01*
Y37018D01*
X55330D01*
X55124Y37308D01*
X54989Y37780D01*
X55047Y37856D01*
X55148Y38100D01*
X55183Y38363D01*
Y41459D01*
X55148Y41722D01*
X55047Y41967D01*
X54885Y42177D01*
X54812Y42251D01*
X54601Y42412D01*
X54357Y42513D01*
X54094Y42548D01*
X53785Y42573D01*
X53449Y43007D01*
X53286Y43401D01*
X53063Y43765D01*
X52786Y44089D01*
X52462Y44366D01*
X52099Y44588D01*
X51705Y44752D01*
X51290Y44851D01*
X50871Y44884D01*
X50865Y44885D01*
X26583D01*
Y44887D01*
D02*
G37*
G36*
X15122Y28023D02*
X13703D01*
Y26603D01*
X13730Y26606D01*
X14062Y26706D01*
X14368Y26870D01*
X14636Y27090D01*
X14855Y27358D01*
X15019Y27663D01*
X15120Y27995D01*
X15122Y28023D01*
D02*
G37*
G36*
X7968D02*
X6548D01*
X6550Y27995D01*
X6651Y27663D01*
X6815Y27358D01*
X7034Y27090D01*
X7302Y26870D01*
X7608Y26706D01*
X7940Y26606D01*
X7968Y26603D01*
Y28023D01*
D02*
G37*
G36*
X37993Y15337D02*
X36266D01*
Y13110D01*
X37993D01*
Y15337D01*
D02*
G37*
G36*
X36012D02*
X34285D01*
Y13110D01*
X36012D01*
Y15337D01*
D02*
G37*
G36*
X37993Y12856D02*
X36266D01*
Y10629D01*
X37993D01*
Y12856D01*
D02*
G37*
G36*
X36012D02*
X34285D01*
Y10629D01*
X36012D01*
Y12856D01*
D02*
G37*
G36*
X56289Y16742D02*
X45289D01*
X45190Y16722D01*
X45106Y16666D01*
X45050Y16582D01*
X45030Y16483D01*
Y9483D01*
X45050Y9384D01*
X45106Y9300D01*
X45190Y9244D01*
X45289Y9224D01*
X56289D01*
X56388Y9244D01*
X56472Y9300D01*
X56528Y9384D01*
X56548Y9483D01*
Y16483D01*
X56528Y16582D01*
X56472Y16666D01*
X56388Y16722D01*
X56289Y16742D01*
D02*
G37*
%LPD*%
G36*
X54512Y41031D02*
X54491Y41004D01*
X54472Y40970D01*
X54456Y40929D01*
X54443Y40881D01*
X54432Y40826D01*
X54423Y40764D01*
X54413Y40618D01*
X54412Y40535D01*
X53923D01*
X53920Y40631D01*
X53913Y40717D01*
X53901Y40792D01*
X53884Y40858D01*
X53862Y40913D01*
X53835Y40958D01*
X53804Y40993D01*
X53767Y41018D01*
X53726Y41032D01*
X53680Y41036D01*
X54535Y41051D01*
X54512Y41031D01*
D02*
G37*
G36*
X52928Y41029D02*
X52904Y41000D01*
X52882Y40964D01*
X52863Y40923D01*
X52848Y40874D01*
X52835Y40819D01*
X52825Y40758D01*
X52817Y40690D01*
X52812Y40535D01*
X52323D01*
X52320Y40633D01*
X52313Y40720D01*
X52301Y40798D01*
X52284Y40865D01*
X52262Y40921D01*
X52235Y40968D01*
X52204Y41004D01*
X52167Y41029D01*
X52126Y41045D01*
X52080Y41050D01*
X52955Y41051D01*
X52928Y41029D01*
D02*
G37*
G36*
X49005Y39958D02*
X49291Y39871D01*
X49555Y39730D01*
X49787Y39540D01*
X49977Y39308D01*
X50118Y39044D01*
X50205Y38758D01*
X50233Y38474D01*
X50231Y38459D01*
Y36003D01*
X50266Y35740D01*
X50318Y35614D01*
X50155Y35202D01*
X49901Y34852D01*
X46004D01*
X45736Y35111D01*
X45477Y35379D01*
Y35589D01*
X45443Y35852D01*
X45341Y36097D01*
X45180Y36307D01*
X44970Y36468D01*
X44725Y36570D01*
X44462Y36604D01*
X42715D01*
X42452Y36570D01*
X42207Y36468D01*
X41997Y36307D01*
X41852D01*
X41642Y36468D01*
X41397Y36570D01*
X41135Y36604D01*
X39359D01*
X38862Y37247D01*
Y39504D01*
X38904Y39607D01*
X39025Y39764D01*
X39183Y39885D01*
X39366Y39961D01*
X39553Y39985D01*
X39563Y39984D01*
X48706D01*
X48721Y39986D01*
X49005Y39958D01*
D02*
G37*
G36*
X38037Y39154D02*
X38043Y39087D01*
X38055Y39025D01*
X38070Y38967D01*
X38091Y38913D01*
X38115Y38863D01*
X38145Y38818D01*
X38179Y38777D01*
X38217Y38741D01*
X38260Y38709D01*
X37376D01*
X37409Y38734D01*
X37437Y38765D01*
X37463Y38802D01*
X37485Y38845D01*
X37503Y38894D01*
X37518Y38949D01*
X37530Y39009D01*
X37539Y39075D01*
X37544Y39147D01*
X37545Y39225D01*
X38034D01*
X38037Y39154D01*
D02*
G37*
G36*
X38216Y37713D02*
X38177Y37675D01*
X38142Y37634D01*
X38112Y37589D01*
X38087Y37539D01*
X38066Y37486D01*
X38050Y37428D01*
X38038Y37366D01*
X38031Y37300D01*
X38029Y37229D01*
X37540D01*
X37538Y37308D01*
X37525Y37447D01*
X37514Y37507D01*
X37499Y37562D01*
X37481Y37610D01*
X37460Y37653D01*
X37435Y37690D01*
X37407Y37721D01*
X37376Y37745D01*
X38260D01*
X38216Y37713D01*
D02*
G37*
G36*
X76835Y37542D02*
X76793Y37528D01*
X76757Y37503D01*
X76725Y37469D01*
X76698Y37424D01*
X76676Y37370D01*
X76659Y37306D01*
X76647Y37232D01*
X76639Y37149D01*
X76637Y37055D01*
X76148D01*
X76145Y37149D01*
X76138Y37232D01*
X76126Y37306D01*
X76109Y37370D01*
X76087Y37424D01*
X76060Y37469D01*
X76028Y37503D01*
X75991Y37528D01*
X75950Y37542D01*
X75903Y37547D01*
X76881D01*
X76835Y37542D01*
D02*
G37*
G36*
X51491Y37114D02*
X51519Y36703D01*
X51526Y36678D01*
X51535Y36661D01*
X50958D01*
X50966Y36678D01*
X50974Y36703D01*
X50980Y36737D01*
X50986Y36779D01*
X50995Y36888D01*
X51002Y37206D01*
X51491D01*
X51491Y37114D01*
D02*
G37*
G36*
X38031Y36512D02*
X38037Y36442D01*
X38046Y36378D01*
X38060Y36318D01*
X38077Y36264D01*
X38098Y36215D01*
X38123Y36171D01*
X38152Y36132D01*
X38184Y36099D01*
X38221Y36071D01*
X37338D01*
X37376Y36100D01*
X37410Y36135D01*
X37441Y36174D01*
X37467Y36218D01*
X37489Y36267D01*
X37508Y36321D01*
X37522Y36380D01*
X37532Y36444D01*
X37538Y36513D01*
X37540Y36587D01*
X38029D01*
X38031Y36512D01*
D02*
G37*
G36*
X44020Y35108D02*
X43987Y35153D01*
X43949Y35193D01*
X43907Y35229D01*
X43862Y35259D01*
X43812Y35285D01*
X43759Y35307D01*
X43701Y35323D01*
X43639Y35335D01*
X43588Y35341D01*
X43537Y35335D01*
X43476Y35323D01*
X43418Y35307D01*
X43364Y35285D01*
X43315Y35259D01*
X43269Y35229D01*
X43228Y35193D01*
X43190Y35153D01*
X43156Y35108D01*
Y36071D01*
X43190Y36026D01*
X43228Y35985D01*
X43269Y35950D01*
X43315Y35919D01*
X43364Y35893D01*
X43418Y35872D01*
X43476Y35855D01*
X43537Y35843D01*
X43588Y35838D01*
X43639Y35843D01*
X43701Y35855D01*
X43759Y35872D01*
X43812Y35893D01*
X43862Y35919D01*
X43907Y35950D01*
X43949Y35985D01*
X43987Y36026D01*
X44020Y36071D01*
Y35108D01*
D02*
G37*
G36*
X40693D02*
X40659Y35153D01*
X40622Y35193D01*
X40580Y35229D01*
X40534Y35259D01*
X40485Y35285D01*
X40431Y35307D01*
X40374Y35323D01*
X40312Y35335D01*
X40247Y35342D01*
X40182Y35335D01*
X40120Y35323D01*
X40063Y35307D01*
X40009Y35285D01*
X39959Y35259D01*
X39914Y35229D01*
X39872Y35193D01*
X39834Y35153D01*
X39801Y35108D01*
Y36071D01*
X39834Y36026D01*
X39872Y35985D01*
X39914Y35950D01*
X39959Y35919D01*
X40009Y35893D01*
X40063Y35872D01*
X40120Y35855D01*
X40182Y35843D01*
X40247Y35836D01*
X40312Y35843D01*
X40374Y35855D01*
X40431Y35872D01*
X40485Y35893D01*
X40534Y35919D01*
X40580Y35950D01*
X40622Y35985D01*
X40659Y36026D01*
X40693Y36071D01*
Y35108D01*
D02*
G37*
G36*
X65626Y35668D02*
X65621Y35699D01*
X65606Y35726D01*
X65582Y35749D01*
X65548Y35770D01*
X65504Y35788D01*
X65450Y35802D01*
X65386Y35813D01*
X65313Y35821D01*
X65137Y35827D01*
Y36316D01*
X65230Y36318D01*
X65386Y36331D01*
X65450Y36342D01*
X65504Y36356D01*
X65548Y36374D01*
X65582Y36394D01*
X65606Y36418D01*
X65621Y36445D01*
X65626Y36475D01*
Y35668D01*
D02*
G37*
G36*
X57452Y35515D02*
X57448Y35561D01*
X57434Y35603D01*
X57409Y35639D01*
X57375Y35671D01*
X57330Y35698D01*
X57275Y35720D01*
X57210Y35737D01*
X57135Y35749D01*
X57050Y35756D01*
X56954Y35759D01*
Y36248D01*
X57039Y36249D01*
X57248Y36266D01*
X57304Y36276D01*
X57352Y36288D01*
X57392Y36303D01*
X57426Y36320D01*
X57452Y36339D01*
X57470Y36361D01*
X57452Y35515D01*
D02*
G37*
G36*
X54088Y36446D02*
X54103Y36404D01*
X54127Y36368D01*
X54162Y36336D01*
X54206Y36309D01*
X54260Y36287D01*
X54324Y36270D01*
X54398Y36258D01*
X54482Y36250D01*
X54575Y36248D01*
Y35759D01*
X54482Y35756D01*
X54398Y35749D01*
X54324Y35737D01*
X54260Y35720D01*
X54206Y35698D01*
X54162Y35671D01*
X54127Y35639D01*
X54103Y35602D01*
X54088Y35561D01*
X54083Y35514D01*
Y36492D01*
X54088Y36446D01*
D02*
G37*
G36*
X41553Y35089D02*
X41532Y35064D01*
X41514Y35035D01*
X41498Y35000D01*
X41484Y34960D01*
X41473Y34914D01*
X41465Y34863D01*
X41458Y34807D01*
X41453Y34679D01*
X40964D01*
X40963Y34757D01*
X40950Y34888D01*
X40939Y34940D01*
X40925Y34985D01*
X40908Y35021D01*
X40888Y35049D01*
X40864Y35069D01*
X40838Y35080D01*
X40808Y35084D01*
X41576Y35108D01*
X41553Y35089D01*
D02*
G37*
G36*
X68647Y35434D02*
X68662Y35411D01*
X68686Y35391D01*
X68721Y35374D01*
X68765Y35359D01*
X68818Y35347D01*
X68882Y35338D01*
X68955Y35331D01*
X69131Y35326D01*
Y34837D01*
X69038Y34835D01*
X68882Y34820D01*
X68818Y34807D01*
X68765Y34791D01*
X68721Y34770D01*
X68686Y34746D01*
X68662Y34719D01*
X68647Y34687D01*
X68642Y34652D01*
Y35459D01*
X68647Y35434D01*
D02*
G37*
G36*
X44904Y35103D02*
X44888Y35064D01*
X44877Y35022D01*
X44871Y34977D01*
X44870Y34928D01*
X44873Y34876D01*
X44881Y34821D01*
X44893Y34762D01*
X44910Y34700D01*
X44932Y34635D01*
X44383Y34614D01*
X44358Y34679D01*
X44330Y34740D01*
X44300Y34798D01*
X44268Y34852D01*
X44233Y34903D01*
X44195Y34951D01*
X44155Y34995D01*
X44113Y35036D01*
X44068Y35073D01*
X44020Y35108D01*
X44924Y35138D01*
X44904Y35103D01*
D02*
G37*
G36*
X38184Y35079D02*
X38152Y35046D01*
X38123Y35007D01*
X38098Y34964D01*
X38077Y34914D01*
X38060Y34860D01*
X38046Y34801D01*
X38037Y34736D01*
X38031Y34666D01*
X38029Y34591D01*
X37540D01*
X37538Y34665D01*
X37532Y34734D01*
X37522Y34798D01*
X37508Y34857D01*
X37489Y34911D01*
X37467Y34960D01*
X37441Y35004D01*
X37410Y35044D01*
X37376Y35078D01*
X37338Y35108D01*
X38221D01*
X38184Y35079D01*
D02*
G37*
G36*
X67836Y34652D02*
X67832Y34636D01*
X67823Y34617D01*
X67807Y34594D01*
X67784Y34568D01*
X67755Y34539D01*
X67678Y34471D01*
X67575Y34390D01*
X67513Y34344D01*
X67411Y34998D01*
X67492Y35059D01*
X67683Y35222D01*
X67730Y35269D01*
X67768Y35314D01*
X67797Y35355D01*
X67819Y35393D01*
X67831Y35428D01*
X67836Y35459D01*
Y34652D01*
D02*
G37*
G36*
X50735Y33592D02*
X50642Y33587D01*
X50559Y33573D01*
X50486Y33548D01*
X50422Y33514D01*
X50369Y33470D01*
X50325Y33416D01*
X50290Y33352D01*
X50266Y33279D01*
X50251Y33196D01*
X50246Y33103D01*
X49757D01*
X49752Y33196D01*
X49738Y33279D01*
X49713Y33352D01*
X49679Y33416D01*
X49635Y33470D01*
X49581Y33514D01*
X49518Y33548D01*
X49444Y33573D01*
X49361Y33587D01*
X49268Y33592D01*
X50002Y34081D01*
X50735Y33592D01*
D02*
G37*
G36*
X63584Y33381D02*
X63591Y33316D01*
X63603Y33254D01*
X63619Y33196D01*
X63641Y33143D01*
X63667Y33093D01*
X63697Y33048D01*
X63733Y33006D01*
X63773Y32968D01*
X63818Y32935D01*
X62855D01*
X62900Y32968D01*
X62941Y33006D01*
X62976Y33048D01*
X63007Y33093D01*
X63033Y33143D01*
X63054Y33196D01*
X63071Y33254D01*
X63083Y33316D01*
X63090Y33381D01*
X63092Y33451D01*
X63581D01*
X63584Y33381D01*
D02*
G37*
G36*
X62855Y32051D02*
X62833Y32079D01*
X62804Y32103D01*
X62768Y32125D01*
X62727Y32143D01*
X62678Y32159D01*
X62623Y32172D01*
X62562Y32182D01*
X62494Y32189D01*
X62438Y32191D01*
X62384Y32186D01*
X62322Y32174D01*
X62265Y32157D01*
X62211Y32136D01*
X62162Y32110D01*
X62116Y32079D01*
X62074Y32043D01*
X62037Y32003D01*
X62003Y31958D01*
Y32921D01*
X62037Y32876D01*
X62074Y32836D01*
X62116Y32800D01*
X62162Y32769D01*
X62211Y32743D01*
X62265Y32722D01*
X62322Y32705D01*
X62384Y32694D01*
X62444Y32687D01*
X62524Y32694D01*
X62602Y32706D01*
X62669Y32723D01*
X62725Y32745D01*
X62772Y32772D01*
X62808Y32803D01*
X62833Y32840D01*
X62849Y32881D01*
X62854Y32927D01*
X62855Y32051D01*
D02*
G37*
G36*
X59540Y31958D02*
X59506Y32003D01*
X59468Y32043D01*
X59427Y32079D01*
X59381Y32110D01*
X59332Y32136D01*
X59278Y32157D01*
X59220Y32174D01*
X59159Y32186D01*
X59093Y32193D01*
X59024Y32195D01*
Y32684D01*
X59093Y32687D01*
X59159Y32694D01*
X59220Y32705D01*
X59278Y32722D01*
X59332Y32743D01*
X59381Y32769D01*
X59427Y32800D01*
X59468Y32836D01*
X59506Y32876D01*
X59540Y32921D01*
Y31958D01*
D02*
G37*
G36*
X29880Y32597D02*
X29918Y32556D01*
X29960Y32521D01*
X30005Y32490D01*
X30055Y32464D01*
X30108Y32443D01*
X30166Y32426D01*
X30228Y32414D01*
X30293Y32407D01*
X30363Y32405D01*
Y31916D01*
X30293Y31913D01*
X30228Y31906D01*
X30166Y31894D01*
X30108Y31878D01*
X30055Y31856D01*
X30005Y31830D01*
X29960Y31800D01*
X29918Y31764D01*
X29880Y31724D01*
X29847Y31679D01*
Y32642D01*
X29880Y32597D01*
D02*
G37*
G36*
X27383Y31679D02*
X27350Y31724D01*
X27312Y31764D01*
X27270Y31800D01*
X27225Y31830D01*
X27175Y31856D01*
X27122Y31878D01*
X27064Y31894D01*
X27002Y31906D01*
X26937Y31913D01*
X26867Y31916D01*
Y32405D01*
X26937Y32407D01*
X27002Y32414D01*
X27064Y32426D01*
X27122Y32443D01*
X27175Y32464D01*
X27225Y32490D01*
X27270Y32521D01*
X27312Y32556D01*
X27350Y32597D01*
X27383Y32642D01*
Y31679D01*
D02*
G37*
G36*
X66172Y34469D02*
X66210Y34312D01*
X66181Y34014D01*
X66182D01*
Y30341D01*
X66019Y30173D01*
X65420Y29885D01*
X65403Y29892D01*
X65140Y29927D01*
X62848D01*
X62815Y29940D01*
X62600Y30011D01*
X62600Y30011D01*
X62552Y29975D01*
X62289Y29940D01*
X62044Y29839D01*
X61834Y29678D01*
X61755Y29599D01*
X61594Y29389D01*
X61493Y29144D01*
X61458Y28881D01*
Y28273D01*
X57132D01*
X57125Y28272D01*
X57007Y28296D01*
X56907Y28362D01*
X56903Y28368D01*
X54857Y30414D01*
Y30548D01*
X54842Y30662D01*
X55089Y31122D01*
X55344Y31420D01*
X55351Y31424D01*
X59981D01*
X60244Y31459D01*
X60489Y31560D01*
X60771Y31689D01*
X61054Y31560D01*
X61299Y31459D01*
X61561Y31424D01*
X63283D01*
X63283Y31424D01*
X63560Y31460D01*
X63818Y31567D01*
X63818Y31567D01*
X64039Y31737D01*
X64209Y31958D01*
X64209Y31959D01*
X64316Y32216D01*
X64352Y32493D01*
X64352D01*
Y35057D01*
X65636D01*
X66172Y34469D01*
D02*
G37*
G36*
X22639Y31781D02*
X22646Y31715D01*
X22658Y31654D01*
X22674Y31596D01*
X22696Y31543D01*
X22722Y31493D01*
X22753Y31447D01*
X22788Y31406D01*
X22829Y31368D01*
X22874Y31334D01*
X21910D01*
X21955Y31368D01*
X21996Y31406D01*
X22031Y31447D01*
X22062Y31493D01*
X22088Y31543D01*
X22110Y31596D01*
X22126Y31654D01*
X22138Y31715D01*
X22145Y31781D01*
X22147Y31851D01*
X22637D01*
X22639Y31781D01*
D02*
G37*
G36*
X52761Y31714D02*
X52789Y31303D01*
X52796Y31278D01*
X52805Y31261D01*
X52228D01*
X52236Y31278D01*
X52244Y31303D01*
X52250Y31337D01*
X52256Y31379D01*
X52265Y31488D01*
X52272Y31806D01*
X52761D01*
X52761Y31714D01*
D02*
G37*
G36*
X50246Y31777D02*
X50265Y31261D01*
X49688D01*
X49701Y31285D01*
X49713Y31316D01*
X49723Y31355D01*
X49732Y31400D01*
X49746Y31513D01*
X49755Y31654D01*
X49757Y31823D01*
X50246Y31777D01*
D02*
G37*
G36*
X19547Y31333D02*
X19561Y31291D01*
X19585Y31255D01*
X19619Y31223D01*
X19663Y31196D01*
X19718Y31174D01*
X19782Y31157D01*
X19856Y31145D01*
X19941Y31137D01*
X20036Y31135D01*
Y30646D01*
X19954Y30644D01*
X19812Y30633D01*
X19750Y30623D01*
X19695Y30611D01*
X19647Y30596D01*
X19605Y30577D01*
X19570Y30557D01*
X19541Y30533D01*
X19520Y30506D01*
X19544Y31379D01*
X19547Y31333D01*
D02*
G37*
G36*
X17056Y30506D02*
X17031Y30538D01*
X17001Y30566D01*
X16964Y30590D01*
X16921Y30612D01*
X16872Y30630D01*
X16818Y30645D01*
X16757Y30656D01*
X16691Y30664D01*
X16618Y30669D01*
X16540Y30671D01*
Y31160D01*
X16635Y31163D01*
X16719Y31170D01*
X16794Y31182D01*
X16858Y31199D01*
X16913Y31221D01*
X16957Y31248D01*
X16991Y31280D01*
X17015Y31316D01*
X17029Y31358D01*
X17032Y31404D01*
X17056Y30506D01*
D02*
G37*
G36*
X22903Y31296D02*
X22937Y31263D01*
X22976Y31233D01*
X23020Y31207D01*
X23069Y31185D01*
X23123Y31167D01*
X23183Y31153D01*
X23247Y31143D01*
X23316Y31137D01*
X23390Y31135D01*
Y30646D01*
X23315Y30644D01*
X23246Y30638D01*
X23181Y30628D01*
X23122Y30615D01*
X23068Y30597D01*
X23019Y30576D01*
X22975Y30550D01*
X22936Y30521D01*
X22902Y30488D01*
X22874Y30451D01*
Y31334D01*
X22903Y31296D01*
D02*
G37*
G36*
X21910Y30451D02*
X21882Y30488D01*
X21848Y30521D01*
X21809Y30550D01*
X21765Y30576D01*
X21716Y30597D01*
X21662Y30615D01*
X21603Y30628D01*
X21538Y30638D01*
X21469Y30644D01*
X21394Y30646D01*
Y31135D01*
X21468Y31137D01*
X21537Y31143D01*
X21601Y31153D01*
X21661Y31167D01*
X21715Y31185D01*
X21764Y31207D01*
X21808Y31233D01*
X21847Y31263D01*
X21881Y31296D01*
X21910Y31334D01*
Y30451D01*
D02*
G37*
G36*
X11884Y31358D02*
X11899Y31317D01*
X11923Y31280D01*
X11958Y31248D01*
X12002Y31221D01*
X12056Y31199D01*
X12120Y31182D01*
X12194Y31170D01*
X12278Y31163D01*
X12371Y31160D01*
Y30671D01*
X12278Y30669D01*
X12194Y30661D01*
X12120Y30649D01*
X12056Y30632D01*
X12002Y30610D01*
X11958Y30583D01*
X11923Y30551D01*
X11899Y30515D01*
X11884Y30473D01*
X11879Y30427D01*
Y31405D01*
X11884Y31358D01*
D02*
G37*
G36*
X35221Y31272D02*
X35255Y31238D01*
X35294Y31208D01*
X35338Y31183D01*
X35387Y31161D01*
X35442Y31143D01*
X35501Y31130D01*
X35565Y31120D01*
X35634Y31114D01*
X35709Y31112D01*
Y30623D01*
X35634Y30621D01*
X35565Y30615D01*
X35501Y30605D01*
X35442Y30591D01*
X35387Y30574D01*
X35338Y30552D01*
X35294Y30526D01*
X35255Y30497D01*
X35221Y30463D01*
X35193Y30426D01*
Y31309D01*
X35221Y31272D01*
D02*
G37*
G36*
X34229Y30426D02*
X34198Y30468D01*
X34162Y30505D01*
X34121Y30538D01*
X34076Y30567D01*
X34027Y30591D01*
X33973Y30611D01*
X33915Y30626D01*
X33852Y30637D01*
X33785Y30643D01*
X33713Y30646D01*
Y31135D01*
X33790Y31136D01*
X33928Y31150D01*
X33988Y31163D01*
X34042Y31178D01*
X34091Y31197D01*
X34134Y31220D01*
X34172Y31246D01*
X34203Y31276D01*
X34229Y31309D01*
Y30426D01*
D02*
G37*
G36*
X51522Y29922D02*
X51510Y29890D01*
X51499Y29852D01*
X51490Y29806D01*
X51477Y29694D01*
X51468Y29553D01*
X51466Y29384D01*
X50976Y29429D01*
X50958Y29946D01*
X51535D01*
X51522Y29922D01*
D02*
G37*
G36*
X52816Y29938D02*
X52821Y29914D01*
X52826Y29876D01*
X52832Y29760D01*
X52837Y29364D01*
X52348Y29368D01*
X52347Y29445D01*
X52329Y29652D01*
X52318Y29712D01*
X52305Y29767D01*
X52289Y29818D01*
X52271Y29865D01*
X52251Y29908D01*
X52228Y29946D01*
X52805D01*
X52811Y29949D01*
X52816Y29938D01*
D02*
G37*
G36*
X67444Y29800D02*
X67452Y29734D01*
X67463Y29673D01*
X67480Y29615D01*
X67501Y29561D01*
X67527Y29512D01*
X67558Y29466D01*
X67594Y29425D01*
X67634Y29387D01*
X67679Y29353D01*
X66716D01*
X66761Y29387D01*
X66801Y29425D01*
X66837Y29466D01*
X66868Y29512D01*
X66894Y29561D01*
X66915Y29615D01*
X66932Y29673D01*
X66944Y29734D01*
X66951Y29800D01*
X66953Y29869D01*
X67442D01*
X67444Y29800D01*
D02*
G37*
G36*
X29880Y30057D02*
X29918Y30016D01*
X29960Y29981D01*
X30005Y29950D01*
X30055Y29924D01*
X30108Y29903D01*
X30166Y29886D01*
X30228Y29874D01*
X30293Y29867D01*
X30363Y29865D01*
Y29376D01*
X30293Y29373D01*
X30228Y29366D01*
X30166Y29354D01*
X30108Y29338D01*
X30055Y29316D01*
X30005Y29290D01*
X29960Y29260D01*
X29918Y29224D01*
X29880Y29184D01*
X29847Y29139D01*
Y30102D01*
X29880Y30057D01*
D02*
G37*
G36*
X27383Y29139D02*
X27350Y29184D01*
X27312Y29224D01*
X27270Y29260D01*
X27225Y29290D01*
X27175Y29316D01*
X27122Y29338D01*
X27064Y29354D01*
X27002Y29366D01*
X26937Y29373D01*
X26867Y29376D01*
Y29865D01*
X26937Y29867D01*
X27002Y29874D01*
X27064Y29886D01*
X27122Y29903D01*
X27175Y29924D01*
X27225Y29950D01*
X27270Y29981D01*
X27312Y30016D01*
X27350Y30057D01*
X27383Y30102D01*
Y29139D01*
D02*
G37*
G36*
X63017Y29354D02*
X63031Y29312D01*
X63055Y29276D01*
X63090Y29244D01*
X63134Y29217D01*
X63189Y29195D01*
X63254Y29178D01*
X63329Y29166D01*
X63414Y29159D01*
X63510Y29156D01*
Y28667D01*
X63434Y28665D01*
X63364Y28660D01*
X63300Y28650D01*
X63240Y28637D01*
X63186Y28620D01*
X63137Y28599D01*
X63093Y28575D01*
X63055Y28546D01*
X63021Y28514D01*
X62994Y28478D01*
X63013Y29400D01*
X63017Y29354D01*
D02*
G37*
G36*
X64659Y28470D02*
X64630Y28507D01*
X64596Y28541D01*
X64557Y28571D01*
X64513Y28596D01*
X64464Y28618D01*
X64410Y28636D01*
X64350Y28649D01*
X64286Y28659D01*
X64217Y28665D01*
X64142Y28667D01*
Y29156D01*
X64217Y29158D01*
X64286Y29164D01*
X64350Y29174D01*
X64410Y29188D01*
X64464Y29205D01*
X64513Y29227D01*
X64557Y29253D01*
X64596Y29282D01*
X64630Y29316D01*
X64659Y29353D01*
Y28470D01*
D02*
G37*
G36*
X52840Y27828D02*
X52847Y27740D01*
X52859Y27663D01*
X52876Y27596D01*
X52898Y27539D01*
X52925Y27493D01*
X52956Y27457D01*
X52993Y27431D01*
X53034Y27416D01*
X53080Y27411D01*
X52204Y27409D01*
X52232Y27432D01*
X52256Y27461D01*
X52278Y27496D01*
X52296Y27538D01*
X52312Y27586D01*
X52325Y27641D01*
X52335Y27703D01*
X52342Y27770D01*
X52348Y27926D01*
X52837D01*
X52840Y27828D01*
D02*
G37*
G36*
X51312Y27851D02*
X51318Y27782D01*
X51328Y27718D01*
X51342Y27658D01*
X51360Y27604D01*
X51381Y27555D01*
X51407Y27511D01*
X51437Y27472D01*
X51470Y27438D01*
X51508Y27409D01*
X50624D01*
X50662Y27438D01*
X50695Y27472D01*
X50725Y27511D01*
X50751Y27555D01*
X50772Y27604D01*
X50790Y27658D01*
X50804Y27718D01*
X50814Y27782D01*
X50819Y27851D01*
X50821Y27926D01*
X51311D01*
X51312Y27851D01*
D02*
G37*
G36*
X66716Y26890D02*
X66687Y26927D01*
X66653Y26961D01*
X66614Y26991D01*
X66570Y27016D01*
X66521Y27038D01*
X66467Y27056D01*
X66408Y27069D01*
X66344Y27079D01*
X66274Y27085D01*
X66200Y27087D01*
Y27576D01*
X66274Y27578D01*
X66344Y27584D01*
X66408Y27594D01*
X66467Y27608D01*
X66521Y27625D01*
X66570Y27647D01*
X66614Y27673D01*
X66653Y27702D01*
X66687Y27736D01*
X66716Y27773D01*
Y26890D01*
D02*
G37*
G36*
X65651Y27736D02*
X65685Y27702D01*
X65724Y27673D01*
X65768Y27647D01*
X65817Y27625D01*
X65871Y27608D01*
X65930Y27594D01*
X65994Y27584D01*
X66064Y27578D01*
X66138Y27576D01*
Y27087D01*
X66064Y27085D01*
X65994Y27079D01*
X65930Y27069D01*
X65871Y27056D01*
X65817Y27038D01*
X65768Y27016D01*
X65724Y26991D01*
X65685Y26961D01*
X65651Y26927D01*
X65622Y26890D01*
Y27773D01*
X65651Y27736D01*
D02*
G37*
G36*
X62962Y28461D02*
X62915Y28457D01*
X62874Y28443D01*
X62837Y28418D01*
X62806Y28383D01*
X62779Y28339D01*
X62757Y28284D01*
X62740Y28219D01*
X62727Y28143D01*
X62720Y28058D01*
X62718Y27962D01*
X62248D01*
X62718Y27258D01*
X62229Y26623D01*
X62224Y26697D01*
X62209Y26764D01*
X62185Y26822D01*
X62150Y26873D01*
X62106Y26916D01*
X62053Y26951D01*
X61989Y26978D01*
X61916Y26998D01*
X61833Y27010D01*
X61740Y27013D01*
Y27503D01*
X61833Y27507D01*
X61916Y27522D01*
X61989Y27547D01*
X62053Y27581D01*
X62106Y27625D01*
X62150Y27679D01*
X62185Y27742D01*
X62209Y27816D01*
X62224Y27899D01*
X62228Y27985D01*
X62227Y28046D01*
X62210Y28254D01*
X62199Y28310D01*
X62186Y28358D01*
X62171Y28399D01*
X62153Y28432D01*
X62133Y28459D01*
X62110Y28478D01*
X62962Y28461D01*
D02*
G37*
G36*
X76662Y26343D02*
X76614Y26329D01*
X76568Y26306D01*
X76522Y26273D01*
X76479Y26231D01*
X76436Y26180D01*
X76395Y26120D01*
X76356Y26050D01*
X76318Y25971D01*
X76281Y25883D01*
X75738Y25898D01*
X75769Y25983D01*
X75791Y26059D01*
X75805Y26127D01*
X75810Y26185D01*
X75807Y26235D01*
X75795Y26275D01*
X75775Y26307D01*
X75747Y26329D01*
X75710Y26343D01*
X75665Y26347D01*
X76712D01*
X76662Y26343D01*
D02*
G37*
G36*
X61531Y24397D02*
X61438Y24392D01*
X61355Y24378D01*
X61281Y24353D01*
X61218Y24319D01*
X61164Y24275D01*
X61120Y24221D01*
X61086Y24158D01*
X61061Y24084D01*
X61046Y24001D01*
X61042Y23908D01*
X60553D01*
X60548Y24001D01*
X60533Y24084D01*
X60509Y24158D01*
X60474Y24221D01*
X60430Y24275D01*
X60376Y24319D01*
X60313Y24353D01*
X60240Y24378D01*
X60156Y24392D01*
X60064Y24397D01*
X60797Y24886D01*
X61531Y24397D01*
D02*
G37*
G36*
X63845Y12494D02*
X63840Y12541D01*
X63826Y12582D01*
X63801Y12619D01*
X63767Y12651D01*
X63722Y12678D01*
X63668Y12700D01*
X63604Y12717D01*
X63530Y12729D01*
X63447Y12736D01*
X63353Y12739D01*
Y13228D01*
X63447Y13230D01*
X63530Y13238D01*
X63604Y13250D01*
X63668Y13267D01*
X63722Y13289D01*
X63767Y13316D01*
X63801Y13348D01*
X63826Y13384D01*
X63840Y13426D01*
X63845Y13472D01*
Y12494D01*
D02*
G37*
G36*
X56289Y9483D02*
X45289D01*
Y16483D01*
X56289D01*
Y9483D01*
D02*
G37*
D16*
X76392Y38141D02*
D03*
Y26941D02*
D03*
D17*
X62552Y28960D02*
D03*
X60972D02*
D03*
X37818Y38227D02*
D03*
X39398D02*
D03*
X42715Y35589D02*
D03*
X41135D02*
D03*
X44462D02*
D03*
X46042D02*
D03*
X51066Y26928D02*
D03*
X52646D02*
D03*
X29405Y29620D02*
D03*
X27825D02*
D03*
X39359Y35589D02*
D03*
X37779D02*
D03*
X19078Y30988D02*
D03*
X17498D02*
D03*
X54094Y41533D02*
D03*
X52514D02*
D03*
X29405Y32160D02*
D03*
X27825D02*
D03*
X61561Y32440D02*
D03*
X59981D02*
D03*
D18*
X34711Y30867D02*
D03*
Y29287D02*
D03*
X22392Y30893D02*
D03*
Y29313D02*
D03*
X65140Y28912D02*
D03*
Y27332D02*
D03*
X67198D02*
D03*
Y28912D02*
D03*
X57952Y34339D02*
D03*
Y35919D02*
D03*
X63337Y32493D02*
D03*
Y30913D02*
D03*
D19*
X49976Y36003D02*
D03*
X51246D02*
D03*
X52516D02*
D03*
X53786D02*
D03*
X52516Y30603D02*
D03*
X51246D02*
D03*
X49976D02*
D03*
X53786D02*
D03*
D20*
X66029Y36072D02*
D03*
X68239Y35056D02*
D03*
X66029Y34040D02*
D03*
D21*
X36139Y12983D02*
D03*
X65439D02*
D03*
D31*
X52567Y42168D02*
G03*
X50865Y43870I-1702J0D01*
G01*
X26583D02*
G03*
X22392Y39679I0J-4191D01*
G01*
X26075Y32160D02*
G03*
X24805Y30890I0J-1270D01*
G01*
D02*
G03*
X26075Y29620I1270J0D01*
G01*
X49500Y36480D02*
G03*
X49976Y36003I476J0D01*
G01*
X73968Y24642D02*
G03*
X76267Y26941I0J2299D01*
G01*
X60797Y24665D02*
G03*
X62473Y26623I-305J1958D01*
G01*
X60797Y15523D02*
G03*
X63337Y12983I2540J0D01*
G01*
X74894Y35081D02*
G03*
X76392Y36580I0J1499D01*
G01*
X68239Y35056D02*
G03*
X67198Y34014I0J-1041D01*
G01*
X64048Y36072D02*
G03*
X63337Y35361I0J-711D01*
G01*
X63283Y32440D02*
G03*
X63337Y32493I0J53D01*
G01*
X56185Y27650D02*
G03*
X57132Y27258I947J947D01*
G01*
X62552Y28960D02*
G03*
X62600Y28912I48J0D01*
G01*
X53050Y32440D02*
G03*
X52516Y31906I0J-533D01*
G01*
X44462Y35361D02*
G03*
X45986Y33837I1524J0D01*
G01*
X49976Y30603D02*
G03*
X50002Y30629I0J25D01*
G01*
X36055Y30867D02*
G03*
X37784Y32637I-0J1730D01*
G01*
X39563Y40999D02*
G03*
X37790Y39226I0J-1773D01*
G01*
X57952Y35919D02*
G03*
X57868Y36003I-84J0D01*
G01*
X51246Y38459D02*
G03*
X48706Y40999I-2540J0D01*
G01*
X10860Y30916D02*
G03*
X10835Y30890I0J-25D01*
G01*
X32425D02*
G03*
X31155Y32160I-1270J0D01*
G01*
Y29620D02*
G03*
X32425Y30890I0J1270D01*
G01*
X52567Y36054D02*
Y42168D01*
X26583Y43870D02*
X50865D01*
X26075Y32160D02*
X27825D01*
X22392Y30893D02*
Y39679D01*
X19078Y30890D02*
X24805D01*
X26075Y29620D02*
X27825D01*
X37784Y35589D02*
Y38157D01*
X49500Y36480D02*
Y38500D01*
X50000D01*
X76267Y26941D02*
X76392D01*
X60797Y24642D02*
X73968D01*
X60797D02*
Y24665D01*
Y15523D02*
Y24642D01*
X48358D02*
X60797D01*
X63337Y12983D02*
X65439D01*
X68239Y35056D02*
X68264Y35081D01*
X74894D01*
X76392Y36580D02*
Y38141D01*
X67198Y28912D02*
Y34014D01*
X64048Y36072D02*
X66029D01*
X61561Y32440D02*
X63283D01*
X63337Y32493D02*
Y35361D01*
X65140Y27332D02*
X67198D01*
X62473Y28881D02*
X62552Y28960D01*
X62473Y27258D02*
Y28881D01*
Y26623D02*
Y27258D01*
X53786Y30603D02*
X53842Y30548D01*
Y29993D02*
Y30548D01*
Y29993D02*
X56185Y27650D01*
Y27650D02*
Y27650D01*
X57132Y27258D02*
X62473D01*
X62600Y28912D02*
X65140D01*
X53050Y32440D02*
X59981D01*
X52516Y30603D02*
Y31906D01*
X41209Y34679D02*
X48071Y27817D01*
X41209Y34679D02*
Y35515D01*
X48071Y24928D02*
Y27817D01*
X41135Y35589D02*
X41209Y35515D01*
X48071Y24928D02*
X48358Y24642D01*
X50002Y30629D02*
Y33837D01*
X45986D02*
X50002D01*
X57409D01*
X57912Y34339D02*
X57952D01*
X57409Y33837D02*
X57912Y34339D01*
X39359Y35589D02*
X41135D01*
X44462Y35361D02*
Y35589D01*
X42715D02*
X44462D01*
X37784Y32637D02*
Y35589D01*
X37790Y38205D02*
Y39226D01*
X37736Y38205D02*
X37784Y38157D01*
X39563Y40999D02*
X48706D01*
X34711Y30867D02*
X36053D01*
X36055Y30867D01*
X32425Y30890D02*
X34711D01*
Y30867D02*
X34759Y30916D01*
X51221Y30578D02*
X51246Y30603D01*
X51221Y28581D02*
Y30578D01*
X51066Y28426D02*
X51221Y28581D01*
X51066Y26928D02*
Y28426D01*
X52593Y26981D02*
X52646Y26928D01*
X52516Y30603D02*
X52572Y30548D01*
Y29931D02*
Y30548D01*
Y29931D02*
X52593Y29911D01*
Y26981D02*
Y29911D01*
X54094Y41533D02*
X54167Y41459D01*
Y38363D02*
Y41459D01*
X53786Y37824D02*
Y37982D01*
X54167Y38363D01*
X53786Y36003D02*
Y37824D01*
Y36003D02*
X57868D01*
X52516D02*
X52567Y36054D01*
X51246Y36003D02*
Y38459D01*
X10860Y30916D02*
X17625D01*
X29405Y32160D02*
X31155D01*
X29405Y29620D02*
X31155D01*
D32*
X10835Y30890D02*
D03*
D33*
X8285Y28340D02*
D03*
X13385D02*
D03*
Y33440D02*
D03*
X8285D02*
D03*
D34*
X86450Y42000D02*
D03*
X80100Y29300D02*
D03*
X86450Y16600D02*
D03*
X80100Y3900D02*
D03*
X73750Y42000D02*
D03*
Y16600D02*
D03*
X67400Y3900D02*
D03*
X61050Y42000D02*
D03*
X54700Y3900D02*
D03*
X42000Y29300D02*
D03*
Y3900D02*
D03*
X35650Y16600D02*
D03*
X29300Y3900D02*
D03*
X22950Y16600D02*
D03*
X16600Y3900D02*
D03*
X10250Y42000D02*
D03*
X3900Y29300D02*
D03*
X10250Y16600D02*
D03*
X3900Y3900D02*
D03*
X37462Y41563D02*
D03*
X36858Y40825D02*
D03*
X36500Y39940D02*
D03*
X36287Y39010D02*
D03*
X36219Y38059D02*
D03*
X36413Y37125D02*
D03*
X36201Y36195D02*
D03*
X36180Y35241D02*
D03*
X36413Y34316D02*
D03*
Y33362D02*
D03*
X36353Y32410D02*
D03*
X35399Y32431D02*
D03*
X34446Y32467D02*
D03*
X33514Y32261D02*
D03*
X32830Y32926D02*
D03*
X31996Y33390D02*
D03*
X31053Y33531D02*
D03*
X30122Y33740D02*
D03*
X28085Y30809D02*
D03*
X30281Y28096D02*
D03*
X31222Y28252D02*
D03*
X32155Y28453D02*
D03*
X32960Y28965D02*
D03*
X35711Y29431D02*
D03*
X36657Y29560D02*
D03*
X37553Y29887D02*
D03*
X38309Y30468D02*
D03*
X38848Y31256D02*
D03*
X39124Y32169D02*
D03*
X39155Y33122D02*
D03*
Y34076D02*
D03*
Y36889D02*
D03*
X39803Y39628D02*
D03*
X40757D02*
D03*
X41711D02*
D03*
X42665D02*
D03*
X43619D02*
D03*
X44573D02*
D03*
X45527D02*
D03*
X46481D02*
D03*
X47435D02*
D03*
X48389D02*
D03*
X49325Y39445D02*
D03*
X46273Y42499D02*
D03*
X47227D02*
D03*
X48181D02*
D03*
X49135D02*
D03*
X50089D02*
D03*
X50924Y42038D02*
D03*
X51181Y41148D02*
D03*
X22436Y29358D02*
D03*
X23390D02*
D03*
X20528D02*
D03*
X21482D02*
D03*
X17080Y32518D02*
D03*
X16126D02*
D03*
X18988D02*
D03*
X18034D02*
D03*
X16712Y29358D02*
D03*
X15758D02*
D03*
X17666D02*
D03*
X25695Y45168D02*
D03*
X24771Y44932D02*
D03*
X23896Y44550D02*
D03*
X23104Y44019D02*
D03*
X22417Y43357D02*
D03*
X21846Y42592D02*
D03*
X21415Y41741D02*
D03*
X21145Y40826D02*
D03*
X21027Y39880D02*
D03*
X21021Y38926D02*
D03*
Y37972D02*
D03*
Y37018D02*
D03*
Y36064D02*
D03*
Y35110D02*
D03*
Y34156D02*
D03*
Y33202D02*
D03*
X19942Y32518D02*
D03*
X18620Y29358D02*
D03*
X19574D02*
D03*
X24214Y29025D02*
D03*
X24999Y28482D02*
D03*
X25925Y28256D02*
D03*
X26872Y28140D02*
D03*
X27813Y27981D02*
D03*
X28756Y28127D02*
D03*
X29010Y33483D02*
D03*
X28110Y33800D02*
D03*
X27157Y33761D02*
D03*
X26231Y33531D02*
D03*
X25286Y33405D02*
D03*
X23763Y32290D02*
D03*
Y33244D02*
D03*
Y34198D02*
D03*
Y35152D02*
D03*
Y36106D02*
D03*
Y37060D02*
D03*
Y38014D02*
D03*
Y38968D02*
D03*
X23781Y39922D02*
D03*
X24022Y40845D02*
D03*
X24556Y41635D02*
D03*
X25324Y42201D02*
D03*
X26239Y42472D02*
D03*
X27193Y42499D02*
D03*
X28147D02*
D03*
X29101D02*
D03*
X30055D02*
D03*
X31009D02*
D03*
X31963D02*
D03*
X32917D02*
D03*
X33871D02*
D03*
X34825D02*
D03*
X35779D02*
D03*
X36733D02*
D03*
X37687D02*
D03*
X38641D02*
D03*
X39595D02*
D03*
X40549D02*
D03*
X41503D02*
D03*
X42457D02*
D03*
X43411D02*
D03*
X44365D02*
D03*
X45319D02*
D03*
X53627Y43510D02*
D03*
X53082Y44294D02*
D03*
X52321Y44869D02*
D03*
X51421Y45187D02*
D03*
X50469Y45241D02*
D03*
X49515D02*
D03*
X48561D02*
D03*
X47607D02*
D03*
X46653D02*
D03*
X45699D02*
D03*
X44745D02*
D03*
X43791D02*
D03*
X42837D02*
D03*
X41883D02*
D03*
X40929D02*
D03*
X39975D02*
D03*
X39021D02*
D03*
X38067D02*
D03*
X37113D02*
D03*
X36159D02*
D03*
X35205D02*
D03*
X34251D02*
D03*
X33297D02*
D03*
X32343D02*
D03*
X31389D02*
D03*
X30435D02*
D03*
X29481D02*
D03*
X28527D02*
D03*
X27573D02*
D03*
X26619D02*
D03*
D35*
X65391Y32124D02*
D03*
X61087Y30607D02*
D03*
X58674Y29083D02*
D03*
X40894Y38354D02*
D03*
X48500Y37000D02*
D03*
M02*
