M48
;Layer_Color=9474304
;FILE_FORMAT=4:4
METRIC,TZ
;TYPE=PLATED
T1F00S00C0.5000
T2F00S00C1.4000
T3F00S00C1.5000
%
T01
X264000Y264000
X391000
X327500Y391000
X454500
X581500
X645000Y264000
X772000
X518000
X899000
X1026000
X1089500Y391000
X962500
X1026000Y518000
X878913Y546244
X835870Y531070
X811740Y515830
X835500Y645000
X962500
X1089500
X761265Y660103
X755819Y667935
X748207Y673686
X739214Y676871
X729689Y677405
X720149
X710609
X701069
X691529
X681989
X672449
X662909
X653369
X643829
X634289
X624749
X615209
X605669
X596129
X586589
X577049
X567509
X557969
X548429
X538889
X529349
X519809
X510269
X500729
X491189
X481949Y676679
X472705Y674319
X463964Y670498
X456039Y665188
X449171Y658566
X443463Y650922
X439148Y642414
X436453Y633262
X435271Y623796
X435211Y614256
Y604716
Y595176
Y585636
Y576096
Y566556
Y557016
X424421Y550176
X414881
X405341
X401655Y518582
X411195
X420735
X430275
X439815
X449355
X458895
X467142Y515251
X474986Y509820
X484254Y507561
X493723Y506397
X503130Y504809
X512557Y506270
X527813Y505957
X537224Y507521
X546551Y509526
X554597Y514652
X582113Y519313
X591567Y520597
X600526Y523874
X608093Y529684
X613482Y537556
X616237Y546689
X616553Y556224
Y565764
Y593888
X589135Y596250
X587187Y605589
X587875Y615104
X590001Y624404
X593579Y633248
X599620Y640631
X601866Y649987
X592326
X582786
X573246
X563706
X554166
X544626
X535086
X525546
X516006
X506465
X496926
X487389Y649724
X478243Y647011
X470561Y641355
X465222Y633448
X462813Y624218
X462629Y614679
Y605140
Y595600
Y586059
Y576519
Y566979
Y557439
Y547899
X477855Y559055
X487312Y560311
X496572Y562607
X506104Y562995
X515104Y559832
X526221Y562403
X535529Y560311
X544963Y558897
X553299Y554258
X560143Y547611
X569458Y549667
X578992Y549309
X588529Y549102
X589135Y558622
Y568162
X586799Y577412
X587011Y586950
X633940Y608540
X632570Y621285
X623030
X642110
X651650
X661190
X670730
X680270
X689810
X699350
X708890
X718252Y619453
X716346Y649987
X706806
X697266
X687726
X678186
X668646
X659106
X649566
X640026
X630486
X620946
X611406
X725886
X734240Y645381
X736810Y636480
X710000Y595000
X645000Y518000
X505851Y533088
X395801Y550176
X386261
X382575Y518582
X392115
X264000Y518000
X327500Y645000
T02
X333350Y533902
T03
X307850Y508402
X358850
Y559402
X307850
M30
